<?xml version="1.0" encoding="UTF-8"?><svg id="Layer_1" xmlns="http://www.w3.org/2000/svg" viewBox="0 0 676.98629 223.57615"><defs><style>.cls-1{fill-rule:evenodd;}.cls-1,.cls-2{fill:#29233b;stroke-width:0px;}</style></defs><path class="cls-1" d="m111.78829,0C50.04937,0,0,50.04891,0,111.78806s50.04937,111.78806,111.78829,111.78806,111.78783-50.04891,111.78783-111.78806S173.52721,0,111.78829,0Zm-20.96022,189.4944c0,2.64619-2.06141,4.14266-4.58198,3.33743-33.81385-10.80362-58.29867-42.48173-58.29867-79.879s24.48482-69.07584,58.29867-79.87946c2.52057-.80523,4.58198.69101,4.58198,3.33766v6.50843c0,1.77461-1.33734,3.79453-3.00344,4.40507-26.75689,9.80004-45.90374,35.51824-45.90374,65.6283s19.14685,55.82735,45.90374,65.62784c1.66609.61054,3.00344,2.63046,3.00344,4.40553v6.50821Zm27.94696-24.14103c0,1.92941-1.56396,3.49337-3.49314,3.49337h-6.98674c-1.92918,0-3.4936-1.56396-3.4936-3.49337v-11.03c-15.24152-2.06803-22.7093-10.5998-24.73879-22.22803-.34516-1.97752,1.22426-3.78541,3.23187-3.78541h7.96889c1.67384,0,3.07502,1.19622,3.42612,2.83268,1.48006,6.90877,5.49437,12.24583,17.69187,12.24583,9.02034,0,15.42025-5.02587,15.42025-12.56409,0-7.54051-3.77174-10.39393-17.02114-12.56455-19.53077-2.62795-28.78365-8.56711-28.78365-23.87337,0-11.82498,8.95377-21.04252,22.80459-23.0116v-10.82277c0-1.92964,1.56441-3.49314,3.4936-3.49314h6.98674c1.92918,0,3.49314,1.5635,3.49314,3.49314v11.13009c11.24636,2.01468,18.42004,8.40205,20.74683,19.04608.43727,2.00237-1.15815,3.88573-3.2068,3.88573h-7.34923c-1.5676,0-2.9127-1.06262-3.35635-2.56594-1.98846-6.73528-6.80116-9.65618-15.17084-9.65618-9.25288,0-14.04871,4.45659-14.04871,10.73727,0,6.62539,2.73943,9.93865,16.90305,11.99505,19.19108,2.62613,29.12927,8.10978,29.12927,24.4431,0,12.41408-9.21823,22.45852-23.64722,24.75019v11.03593Zm18.55546,27.47846c-2.52057.80523-4.58153-.69124-4.58153-3.33743v-6.50821c0-1.94651,1.17593-3.73594,3.00298-4.40553,26.75689-9.80049,45.90374-35.51824,45.90374-65.62784s-19.14685-55.82826-45.90374-65.6283c-1.66564-.61054-3.00298-2.63046-3.00298-4.40507v-6.50843c0-2.64664,2.06096-4.14289,4.58153-3.33766,33.81385,10.80362,58.29867,42.48173,58.29867,79.87946s-24.48482,69.07539-58.29867,79.879Z"/><path class="cls-2" d="m263.7848,128.96709V55.13631h19.01665v72.71234c0,15.98028,8.7891,24.76937,23.17145,24.76937,14.5429,0,23.17145-8.7891,23.17145-24.76937V55.13631h19.17719v73.83078c0,27.32626-18.53716,41.86916-42.34864,41.86916-23.65094,0-42.1881-14.5429-42.1881-41.86916Z"/><path class="cls-2" d="m426.48673,87.09793c-1.11737-7.03171-7.02957-17.41872-22.21249-17.41872-11.50546,0-19.49613,7.67066-19.49613,16.30029,0,7.19118,4.47589,12.62389,13.26499,14.54183l16.30029,3.35638c19.97561,3.99534,30.68264,16.61923,30.68264,32.60058,0,17.5782-14.22395,34.35797-40.11176,34.35797-28.76471,0-42.0297-18.53823-43.78709-34.83745l17.89928-5.11377c1.11737,11.82547,9.58752,22.69197,25.88781,22.69197,13.58393,0,20.61564-6.87117,20.61564-15.66133,0-7.35065-5.43486-13.26392-15.18292-15.34132l-15.97921-3.35531c-17.25925-3.51585-28.76685-14.86184-28.76685-31.80108,0-19.01772,17.4198-34.67798,38.51491-34.67798,26.68624,0,37.07432,16.30029,39.63014,28.92418l-17.25925,5.43379Z"/><path class="cls-2" d="m461.03297,168.43883V55.13631h40.11176c30.84318,0,55.13414,20.45509,55.13414,56.89154,0,36.2759-24.61204,56.41098-55.29469,56.41098h-39.95122Zm39.31334-17.5782c19.65667,0,35.95696-12.62496,35.95696-38.83279,0-26.52783-16.14189-39.31227-35.79856-39.31227h-20.29455v78.14506h20.13615Z"/><path class="cls-2" d="m568.47981,111.86731c0-36.91485,27.6452-59.12734,57.04994-59.12734,28.76471,0,45.86342,16.93924,50.97934,36.75538l-18.05982,6.07274c-3.35424-13.7434-13.90287-24.77044-32.91952-24.77044-18.6977,0-37.39327,13.58393-37.39327,41.06966,0,26.52783,18.21608,40.59125,37.55381,40.59125,19.01665,0,29.88422-12.14548,33.71794-24.92991l17.5782,5.75273c-5.11377,19.17719-22.37089,37.55488-51.29614,37.55488-30.52424,0-57.21048-22.05302-57.21048-58.96894Z"/></svg>