<?xml version="1.0" encoding="UTF-8"?><svg id="Layer_1" xmlns="http://www.w3.org/2000/svg" viewBox="0 0 676.98629 223.57615"><defs><style>.cls-1{fill:#2775ca;}.cls-1,.cls-2{fill-rule:evenodd;}.cls-1,.cls-2,.cls-3{stroke-width:0px;}.cls-2{fill:#fff;}.cls-3{fill:#29233b;}</style></defs><path id="Logo" class="cls-1" d="m111.78808,0c61.73902,0,111.78809,50.04906,111.78809,111.78808s-50.04907,111.78808-111.78809,111.78808S0,173.5271,0,111.78808,50.04906,0,111.78808,0Z"/><path class="cls-2" d="m137.33056,33.07349c-2.52071-.80531-4.582.69089-4.582,3.33742h0v6.5087c0,1.77458,1.33752,3.79422,3.00338,4.40489,26.7568,9.80009,45.9037,35.51836,45.9037,65.62837s-19.1469,55.8274-45.9037,65.62792c-1.82719.66942-3.00338,2.45891-3.00338,4.40534h0v6.50826c0,2.64609,2.06128,4.14273,4.582,3.33742,33.81349-10.80356,58.29859-42.48165,58.29859-79.87893s-24.4851-69.07583-58.29859-79.87938Zm-46.50253,3.33742c0-2.64653-2.06128-4.14273-4.582-3.33742-33.81392,10.80355-58.29901,42.48166-58.29901,79.87938s24.4851,69.07538,58.29901,79.87893c2.52071.80532,4.582-.69133,4.582-3.33742h0v-6.50826c0-1.77502-1.33751-3.79509-3.00381-4.40534-26.75637-9.80052-45.90369-35.51836-45.90369-65.62792s19.14732-55.82828,45.90369-65.62837c1.6663-.61067,3.00381-2.63031,3.00381-4.40489h0v-6.5087Zm24.45353,20.64792h-6.98654c-1.92933,0-3.49349,1.56372-3.49349,3.49305h0v10.82283c-13.85076,1.96923-22.80477,11.18671-22.80477,23.01169,0,15.3062,9.25299,21.24543,28.78346,23.87355,13.24974,2.17044,17.02116,5.02389,17.02116,12.56453,0,7.53803-6.39953,12.56411-15.42018,12.56411-12.19761,0-16.21146-5.33734-17.69189-12.24584-.35071-1.63649-1.75222-2.83284-3.42598-2.83284h-7.96896c-2.00736,0-3.57678,1.8079-3.23177,3.78545,2.02928,11.62815,9.49717,20.15998,24.73892,22.22785h0v11.03019c0,1.92934,1.56416,3.49349,3.49349,3.49349h6.98654c1.92933,0,3.49349-1.56416,3.49349-3.49349h0v-11.03589c14.42855-2.29188,23.64691-12.33614,23.64691-24.75032,0-16.33334-9.93819-21.81709-29.12935-24.44301-14.16333-2.05646-16.9028-5.36977-16.9028-11.99508,0-6.28073,4.79594-10.73735,14.04891-10.73735,8.3692,0,13.18223,2.92096,15.17074,9.6563.44365,1.50322,1.78861,2.56587,3.35627,2.56587h7.34908c2.04901,0,3.64429-1.88331,3.20678-3.88584-2.3265-10.64398-9.50023-17.03124-20.74655-19.04606h0v-11.13014c0-1.92933-1.56416-3.49305-3.49349-3.49305h0Z"/><path class="cls-3" d="m263.78465,128.96706V55.13628h19.01665v72.71234c0,15.98028,8.7891,24.76937,23.17145,24.76937,14.5429,0,23.17145-8.7891,23.17145-24.76937V55.13628h19.17719v73.83078c0,27.32626-18.53716,41.86916-42.34864,41.86916-23.65094,0-42.1881-14.5429-42.1881-41.86916Z"/><path class="cls-3" d="m426.48659,87.0979c-1.11737-7.03171-7.02957-17.41872-22.21249-17.41872-11.50546,0-19.49613,7.67066-19.49613,16.30029,0,7.19118,4.47589,12.62389,13.26499,14.54183l16.30029,3.35638c19.97561,3.99534,30.68264,16.61923,30.68264,32.60058,0,17.5782-14.22395,34.35797-40.11176,34.35797-28.76471,0-42.0297-18.53823-43.78709-34.83745l17.89928-5.11377c1.11737,11.82547,9.58752,22.69197,25.88781,22.69197,13.58393,0,20.61564-6.87117,20.61564-15.66133,0-7.35065-5.43486-13.26392-15.18292-15.34132l-15.97921-3.35531c-17.25925-3.51585-28.76685-14.86184-28.76685-31.80108,0-19.01772,17.4198-34.67798,38.51491-34.67798,26.68624,0,37.07432,16.30029,39.63014,28.92418l-17.25925,5.43379Z"/><path class="cls-3" d="m461.03282,168.4388V55.13628h40.11176c30.84318,0,55.13414,20.45509,55.13414,56.89154,0,36.2759-24.61204,56.41098-55.29469,56.41098h-39.95122Zm39.31334-17.5782c19.65667,0,35.95696-12.62496,35.95696-38.83279,0-26.52783-16.14189-39.31227-35.79856-39.31227h-20.29455v78.14506h20.13615Z"/><path class="cls-3" d="m568.47967,111.86728c0-36.91485,27.6452-59.12734,57.04994-59.12734,28.76471,0,45.86342,16.93924,50.97934,36.75538l-18.05982,6.07274c-3.35424-13.7434-13.90287-24.77044-32.91952-24.77044-18.6977,0-37.39327,13.58393-37.39327,41.06966,0,26.52783,18.21608,40.59125,37.55381,40.59125,19.01665,0,29.88422-12.14548,33.71794-24.92991l17.5782,5.75273c-5.11377,19.17719-22.37089,37.55488-51.29614,37.55488-30.52424,0-57.21048-22.05302-57.21048-58.96894Z"/></svg>